<?xml version="1.0" encoding="UTF-8"?>
<svg xmlns="http://www.w3.org/2000/svg" xmlns:xlink="http://www.w3.org/1999/xlink" width="6000px" height="746px" viewBox="0 0 5996 746" version="1.1">
<g id="surface1">
<path style=" stroke:none;fill-rule:nonzero;fill:rgb(0%,0%,0%);fill-opacity:1;" d="M 235.800781 304.890625 C 235.03125 297.109375 231.71875 291.058594 225.863281 286.75 C 220.007812 282.4375 212.0625 280.28125 202.027344 280.28125 C 195.207031 280.28125 189.449219 281.246094 184.753906 283.179688 C 180.058594 285.042969 176.453125 287.648438 173.945312 290.996094 C 171.5 294.339844 170.28125 298.136719 170.28125 302.382812 C 170.148438 305.921875 170.890625 309.011719 172.5 311.648438 C 174.171875 314.285156 176.453125 316.570312 179.351562 318.5 C 182.246094 320.367188 185.589844 322.007812 189.386719 323.421875 C 193.183594 324.773438 197.234375 325.929688 201.542969 326.894531 L 219.300781 331.140625 C 227.921875 333.070312 235.835938 335.644531 243.039062 338.863281 C 250.246094 342.078125 256.484375 346.035156 261.761719 350.734375 C 267.035156 355.429688 271.121094 360.964844 274.015625 367.332031 C 276.976562 373.703125 278.488281 381.003906 278.550781 389.242188 C 278.488281 401.335938 275.398438 411.824219 269.289062 420.703125 C 263.238281 429.515625 254.492188 436.367188 243.039062 441.257812 C 231.652344 446.082031 217.917969 448.496094 201.835938 448.496094 C 185.878906 448.496094 171.984375 446.050781 160.144531 441.160156 C 148.375 436.269531 139.175781 429.035156 132.546875 419.449219 C 125.984375 409.796875 122.542969 397.859375 122.222656 383.640625 L 162.65625 383.640625 C 163.105469 390.269531 165.003906 395.800781 168.347656 400.242188 C 171.757812 404.617188 176.292969 407.929688 181.957031 410.183594 C 187.683594 412.371094 194.148438 413.464844 201.351562 413.464844 C 208.429688 413.464844 214.570312 412.433594 219.785156 410.375 C 225.058594 408.316406 229.144531 405.453125 232.039062 401.785156 C 234.933594 398.121094 236.378906 393.90625 236.378906 389.144531 C 236.378906 384.703125 235.0625 380.972656 232.425781 377.949219 C 229.851562 374.925781 226.054688 372.351562 221.039062 370.226562 C 216.085938 368.105469 210.003906 366.175781 202.800781 364.4375 L 181.28125 359.035156 C 164.617188 354.980469 151.460938 348.644531 141.8125 340.019531 C 132.160156 331.398438 127.367188 319.785156 127.433594 305.183594 C 127.367188 293.214844 130.554688 282.761719 136.988281 273.816406 C 143.484375 264.875 152.394531 257.894531 163.714844 252.875 C 175.039062 247.855469 187.90625 245.347656 202.316406 245.347656 C 216.984375 245.347656 229.785156 247.855469 240.722656 252.875 C 251.726562 257.894531 260.28125 264.875 266.390625 273.816406 C 272.503906 282.761719 275.65625 293.117188 275.851562 304.890625 Z M 306.65625 445.699219 L 306.65625 248.046875 L 439.828125 248.046875 L 439.828125 282.503906 L 348.441406 282.503906 L 348.441406 329.597656 L 432.972656 329.597656 L 432.972656 364.050781 L 348.441406 364.050781 L 348.441406 411.246094 L 440.210938 411.246094 L 440.210938 445.699219 Z M 473.046875 445.699219 L 473.046875 248.046875 L 514.832031 248.046875 L 514.832031 411.246094 L 599.554688 411.246094 L 599.554688 445.699219 Z M 666.335938 445.699219 L 621.558594 445.699219 L 689.785156 248.046875 L 743.628906 248.046875 L 811.757812 445.699219 L 766.984375 445.699219 L 717.480469 293.214844 L 715.9375 293.214844 Z M 663.535156 368.007812 L 769.300781 368.007812 L 769.300781 400.628906 L 663.535156 400.628906 Z M 835.546875 248.046875 L 887.078125 248.046875 L 941.503906 380.84375 L 943.820312 380.84375 L 998.246094 248.046875 L 1049.777344 248.046875 L 1049.777344 445.699219 L 1009.246094 445.699219 L 1009.246094 317.050781 L 1007.605469 317.050781 L 956.460938 444.734375 L 928.863281 444.734375 L 877.714844 316.570312 L 876.078125 316.570312 L 876.078125 445.699219 L 835.546875 445.699219 Z M 1118.265625 445.699219 L 1073.492188 445.699219 L 1141.714844 248.046875 L 1195.5625 248.046875 L 1263.691406 445.699219 L 1218.914062 445.699219 L 1169.410156 293.214844 L 1167.867188 293.214844 Z M 1115.46875 368.007812 L 1221.230469 368.007812 L 1221.230469 400.628906 L 1115.46875 400.628906 Z M 1255.800781 282.503906 L 1255.800781 248.046875 L 1418.117188 248.046875 L 1418.117188 282.503906 L 1357.609375 282.503906 L 1357.609375 445.699219 L 1316.308594 445.699219 L 1316.308594 282.503906 Z M 1577.792969 445.699219 L 1507.738281 445.699219 L 1507.738281 248.046875 L 1578.375 248.046875 C 1598.253906 248.046875 1615.375 252.003906 1629.707031 259.917969 C 1644.054688 267.769531 1655.089844 279.058594 1662.804688 293.792969 C 1670.59375 308.527344 1674.492188 326.15625 1674.492188 346.679688 C 1674.492188 367.269531 1670.59375 384.960938 1662.804688 399.757812 C 1655.089844 414.558594 1644 425.914062 1629.519531 433.828125 C 1615.117188 441.742188 1597.875 445.699219 1577.792969 445.699219 Z M 1549.515625 409.894531 L 1576.066406 409.894531 C 1588.417969 409.894531 1598.796875 407.707031 1607.234375 403.332031 C 1615.726562 398.890625 1622.085938 392.039062 1626.339844 382.773438 C 1630.644531 373.445312 1632.804688 361.414062 1632.804688 346.679688 C 1632.804688 332.074219 1630.644531 320.140625 1626.339844 310.875 C 1622.085938 301.609375 1615.753906 294.789062 1607.332031 290.414062 C 1598.890625 286.042969 1588.511719 283.855469 1576.160156 283.855469 L 1549.515625 283.855469 Z M 1728.363281 445.699219 L 1683.582031 445.699219 L 1751.816406 248.046875 L 1805.660156 248.046875 L 1873.789062 445.699219 L 1829.003906 445.699219 L 1779.507812 293.214844 L 1777.957031 293.214844 Z M 1725.566406 368.007812 L 1831.328125 368.007812 L 1831.328125 400.628906 L 1725.566406 400.628906 Z M 1865.894531 282.503906 L 1865.894531 248.046875 L 2028.207031 248.046875 L 2028.207031 282.503906 L 1967.703125 282.503906 L 1967.703125 445.699219 L 1926.398438 445.699219 L 1926.398438 282.503906 Z M 2064.847656 445.699219 L 2020.078125 445.699219 L 2088.300781 248.046875 L 2142.148438 248.046875 L 2210.273438 445.699219 L 2165.503906 445.699219 L 2116.003906 293.214844 L 2114.457031 293.214844 Z M 2062.050781 368.007812 L 2167.8125 368.007812 L 2167.8125 400.628906 L 2062.050781 400.628906 Z M 2399.363281 248.046875 L 2399.363281 445.699219 L 2363.277344 445.699219 L 2277.296875 321.300781 L 2275.84375 321.300781 L 2275.84375 445.699219 L 2234.0625 445.699219 L 2234.0625 248.046875 L 2270.734375 248.046875 L 2356.035156 372.351562 L 2357.773438 372.351562 L 2357.773438 248.046875 Z M 2564.9375 311.9375 C 2563.59375 307.242188 2561.691406 303.089844 2559.246094 299.488281 C 2556.796875 295.820312 2553.808594 292.730469 2550.277344 290.222656 C 2546.796875 287.648438 2542.804688 285.6875 2538.308594 284.335938 C 2533.863281 282.984375 2528.945312 282.308594 2523.539062 282.308594 C 2513.441406 282.308594 2504.554688 284.820312 2496.90625 289.835938 C 2489.3125 294.855469 2483.402344 302.160156 2479.148438 311.742188 C 2474.910156 321.265625 2472.777344 332.910156 2472.777344 346.679688 C 2472.777344 360.449219 2474.867188 372.160156 2479.054688 381.808594 C 2483.238281 391.460938 2489.148438 398.828125 2496.8125 403.910156 C 2504.460938 408.925781 2513.511719 411.4375 2523.929688 411.4375 C 2533.386719 411.4375 2541.457031 409.765625 2548.144531 406.417969 C 2554.898438 403.007812 2560.046875 398.214844 2563.59375 392.039062 C 2567.191406 385.863281 2568.988281 378.558594 2568.988281 370.132812 L 2577.476562 371.386719 L 2526.527344 371.386719 L 2526.527344 339.925781 L 2609.230469 339.925781 L 2609.230469 364.824219 C 2609.230469 382.195312 2605.5625 397.121094 2598.226562 409.605469 C 2590.902344 422.019531 2580.792969 431.609375 2567.925781 438.363281 C 2555.058594 445.054688 2540.332031 448.398438 2523.726562 448.398438 C 2505.207031 448.398438 2488.929688 444.3125 2474.910156 436.144531 C 2460.875 427.90625 2449.949219 416.230469 2442.097656 401.113281 C 2434.3125 385.925781 2430.410156 367.914062 2430.410156 347.066406 C 2430.410156 331.046875 2432.734375 316.761719 2437.367188 304.21875 C 2442.054688 291.605469 2448.617188 280.925781 2457.054688 272.175781 C 2465.480469 263.425781 2475.289062 256.765625 2486.484375 252.199219 C 2497.679688 247.632812 2509.800781 245.347656 2522.859375 245.347656 C 2534.054688 245.347656 2544.476562 246.988281 2554.136719 250.269531 C 2563.78125 253.484375 2572.34375 258.054688 2579.800781 263.972656 C 2587.328125 269.890625 2593.46875 276.9375 2598.226562 285.109375 C 2602.996094 293.214844 2606.050781 302.160156 2607.398438 311.9375 Z M 2773.566406 445.699219 L 2703.511719 445.699219 L 2703.511719 248.046875 L 2774.152344 248.046875 C 2794.03125 248.046875 2811.136719 252.003906 2825.484375 259.917969 C 2839.832031 267.769531 2850.863281 279.058594 2858.582031 293.792969 C 2866.367188 308.527344 2870.265625 326.15625 2870.265625 346.679688 C 2870.265625 367.269531 2866.367188 384.960938 2858.582031 399.757812 C 2850.863281 414.558594 2839.765625 425.914062 2825.292969 433.828125 C 2810.878906 441.742188 2793.636719 445.699219 2773.566406 445.699219 Z M 2745.292969 409.894531 L 2771.828125 409.894531 C 2784.179688 409.894531 2794.574219 407.707031 2802.996094 403.332031 C 2811.488281 398.890625 2817.863281 392.039062 2822.113281 382.773438 C 2826.421875 373.445312 2828.570312 361.414062 2828.570312 346.679688 C 2828.570312 332.074219 2826.421875 320.140625 2822.113281 310.875 C 2817.863281 301.609375 2811.53125 294.789062 2803.09375 290.414062 C 2794.667969 286.042969 2784.289062 283.855469 2771.921875 283.855469 L 2745.292969 283.855469 Z M 2943 248.046875 L 2943 445.699219 L 2901.21875 445.699219 L 2901.21875 248.046875 Z M 3074.332031 445.699219 L 3029.5625 445.699219 L 3097.785156 248.046875 L 3151.628906 248.046875 L 3219.753906 445.699219 L 3174.984375 445.699219 L 3125.472656 293.214844 L 3123.9375 293.214844 Z M 3071.535156 368.007812 L 3177.296875 368.007812 L 3177.296875 400.628906 L 3071.535156 400.628906 Z M 3243.546875 445.699219 L 3243.546875 248.046875 L 3321.523438 248.046875 C 3336.507812 248.046875 3349.28125 250.910156 3359.824219 256.636719 C 3370.382812 262.300781 3378.425781 270.179688 3383.957031 280.28125 C 3389.554688 290.320312 3392.351562 301.898438 3392.351562 315.023438 C 3392.351562 328.148438 3389.511719 339.730469 3383.859375 349.769531 C 3378.195312 359.804688 3369.988281 367.625 3359.253906 373.21875 C 3348.574219 378.816406 3335.640625 381.617188 3320.464844 381.617188 L 3270.761719 381.617188 L 3270.761719 348.128906 L 3313.695312 348.128906 C 3321.742188 348.128906 3328.371094 346.746094 3333.574219 343.976562 C 3338.859375 341.148438 3342.785156 337.253906 3345.355469 332.300781 C 3347.992188 327.28125 3349.308594 321.523438 3349.308594 315.023438 C 3349.308594 308.464844 3347.992188 302.738281 3345.355469 297.847656 C 3342.785156 292.894531 3338.859375 289.066406 3333.574219 286.363281 C 3328.304688 283.59375 3321.617188 282.214844 3313.507812 282.214844 L 3285.328125 282.214844 L 3285.328125 445.699219 Z M 3419.484375 445.699219 L 3419.484375 248.046875 L 3461.28125 248.046875 L 3461.28125 411.246094 L 3545.996094 411.246094 L 3545.996094 445.699219 Z M 3615.453125 248.046875 L 3615.453125 445.699219 L 3573.671875 445.699219 L 3573.671875 248.046875 Z M 3649.828125 445.699219 L 3649.828125 248.046875 L 3691.621094 248.046875 L 3691.621094 335.195312 L 3694.21875 335.195312 L 3765.347656 248.046875 L 3815.429688 248.046875 L 3742.085938 336.546875 L 3816.296875 445.699219 L 3766.3125 445.699219 L 3712.167969 364.4375 L 3691.621094 389.53125 L 3691.621094 445.699219 Z M 3871.257812 445.699219 L 3826.476562 445.699219 L 3894.695312 248.046875 L 3948.542969 248.046875 L 4016.679688 445.699219 L 3971.898438 445.699219 L 3922.398438 293.214844 L 3920.851562 293.214844 Z M 3868.460938 368.007812 L 3974.222656 368.007812 L 3974.222656 400.628906 L 3868.460938 400.628906 Z M 4143.164062 304.890625 C 4142.390625 297.109375 4139.074219 291.058594 4133.21875 286.75 C 4127.375 282.4375 4119.425781 280.28125 4109.386719 280.28125 C 4102.566406 280.28125 4096.804688 281.246094 4092.117188 283.179688 C 4087.414062 285.042969 4083.816406 287.648438 4081.300781 290.996094 C 4078.855469 294.339844 4077.648438 298.136719 4077.648438 302.382812 C 4077.511719 305.921875 4078.246094 309.011719 4079.863281 311.648438 C 4081.53125 314.285156 4083.816406 316.570312 4086.710938 318.5 C 4089.605469 320.367188 4092.945312 322.007812 4096.75 323.421875 C 4100.542969 324.773438 4104.589844 325.929688 4108.910156 326.894531 L 4126.65625 331.140625 C 4135.285156 333.070312 4143.191406 335.644531 4150.40625 338.863281 C 4157.605469 342.078125 4163.84375 346.035156 4169.117188 350.734375 C 4174.402344 355.429688 4178.476562 360.964844 4181.371094 367.332031 C 4184.332031 373.703125 4185.855469 381.003906 4185.910156 389.242188 C 4185.855469 401.335938 4182.757812 411.824219 4176.644531 420.703125 C 4170.597656 429.515625 4161.847656 436.367188 4150.40625 441.257812 C 4139.019531 446.082031 4125.285156 448.496094 4109.195312 448.496094 C 4093.246094 448.496094 4079.34375 446.050781 4067.511719 441.160156 C 4055.730469 436.269531 4046.53125 429.035156 4039.914062 419.449219 C 4033.351562 409.796875 4029.902344 397.859375 4029.589844 383.640625 L 4070.011719 383.640625 C 4070.472656 390.269531 4072.363281 395.800781 4075.703125 400.242188 C 4079.113281 404.617188 4083.652344 407.929688 4089.316406 410.183594 C 4095.039062 412.371094 4101.503906 413.464844 4108.707031 413.464844 C 4115.785156 413.464844 4121.925781 412.433594 4127.144531 410.375 C 4132.417969 408.316406 4136.507812 405.453125 4139.398438 401.785156 C 4142.292969 398.121094 4143.75 393.90625 4143.75 389.144531 C 4143.75 384.703125 4142.429688 380.972656 4139.78125 377.949219 C 4137.210938 374.925781 4133.421875 372.351562 4128.394531 370.226562 C 4123.449219 368.105469 4117.363281 366.175781 4110.160156 364.4375 L 4088.640625 359.035156 C 4071.980469 354.980469 4058.828125 348.644531 4049.167969 340.019531 C 4039.519531 331.398438 4034.726562 319.785156 4034.792969 305.183594 C 4034.726562 293.214844 4037.917969 282.761719 4044.34375 273.816406 C 4050.839844 264.875 4059.753906 257.894531 4071.085938 252.875 C 4082.402344 247.855469 4095.269531 245.347656 4109.671875 245.347656 C 4124.347656 245.347656 4137.144531 247.855469 4148.082031 252.875 C 4159.089844 257.894531 4167.648438 264.875 4173.75 273.816406 C 4179.863281 282.761719 4183.015625 293.117188 4183.207031 304.890625 Z M 4255.800781 248.046875 L 4255.800781 445.699219 L 4214.019531 445.699219 L 4214.019531 248.046875 Z M 4394.851562 248.046875 L 4394.851562 445.699219 L 4353.070312 445.699219 L 4353.070312 248.046875 Z M 4594.542969 248.046875 L 4594.542969 445.699219 L 4558.453125 445.699219 L 4472.460938 321.300781 L 4471.019531 321.300781 L 4471.019531 445.699219 L 4429.242188 445.699219 L 4429.242188 248.046875 L 4465.914062 248.046875 L 4551.210938 372.351562 L 4552.953125 372.351562 L 4552.953125 248.046875 Z M 4664.773438 248.046875 L 4712.53125 398.214844 L 4714.367188 398.214844 L 4762.234375 248.046875 L 4808.554688 248.046875 L 4740.425781 445.699219 L 4686.582031 445.699219 L 4618.347656 248.046875 Z M 4832.34375 445.699219 L 4832.34375 248.046875 L 4965.511719 248.046875 L 4965.511719 282.503906 L 4874.125 282.503906 L 4874.125 329.597656 L 4958.648438 329.597656 L 4958.648438 364.050781 L 4874.125 364.050781 L 4874.125 411.246094 L 4965.890625 411.246094 L 4965.890625 445.699219 Z M 5164.03125 248.046875 L 5164.03125 445.699219 L 5127.945312 445.699219 L 5041.964844 321.300781 L 5040.511719 321.300781 L 5040.511719 445.699219 L 4998.730469 445.699219 L 4998.730469 248.046875 L 5035.402344 248.046875 L 5120.703125 372.351562 L 5122.441406 372.351562 L 5122.441406 248.046875 Z M 5191.03125 282.503906 L 5191.03125 248.046875 L 5353.34375 248.046875 L 5353.34375 282.503906 L 5292.839844 282.503906 L 5292.839844 445.699219 L 5251.535156 445.699219 L 5251.535156 282.503906 Z M 5552.664062 346.875 C 5552.664062 368.425781 5548.574219 386.761719 5540.410156 401.882812 C 5532.296875 417.003906 5521.238281 428.550781 5507.203125 436.53125 C 5493.25 444.445312 5477.554688 448.398438 5460.109375 448.398438 C 5442.554688 448.398438 5426.792969 444.410156 5412.828125 436.433594 C 5398.871094 428.457031 5387.839844 416.90625 5379.730469 401.785156 C 5371.628906 386.667969 5367.566406 368.363281 5367.566406 346.875 C 5367.566406 325.320312 5371.628906 306.984375 5379.730469 291.863281 C 5387.839844 276.746094 5398.871094 265.226562 5412.828125 257.3125 C 5426.792969 249.335938 5442.554688 245.347656 5460.109375 245.347656 C 5477.554688 245.347656 5493.25 249.335938 5507.203125 257.3125 C 5521.238281 265.226562 5532.296875 276.746094 5540.410156 291.863281 C 5548.574219 306.984375 5552.664062 325.320312 5552.664062 346.875 Z M 5510.300781 346.875 C 5510.300781 332.910156 5508.207031 321.136719 5504.023438 311.550781 C 5499.90625 301.964844 5494.078125 294.695312 5486.550781 289.738281 C 5479.023438 284.785156 5470.21875 282.308594 5460.109375 282.308594 C 5450.015625 282.308594 5441.195312 284.785156 5433.667969 289.738281 C 5426.140625 294.695312 5420.300781 301.964844 5416.113281 311.550781 C 5411.996094 321.136719 5409.933594 332.910156 5409.933594 346.875 C 5409.933594 360.835938 5411.996094 372.609375 5416.113281 382.195312 C 5420.300781 391.78125 5426.140625 399.050781 5433.667969 404.007812 C 5441.195312 408.960938 5450.015625 411.4375 5460.109375 411.4375 C 5470.21875 411.4375 5479.023438 408.960938 5486.550781 404.007812 C 5494.078125 399.050781 5499.90625 391.78125 5504.023438 382.195312 C 5508.207031 372.609375 5510.300781 360.835938 5510.300781 346.875 Z M 5583.617188 445.699219 L 5583.617188 248.046875 L 5661.578125 248.046875 C 5676.511719 248.046875 5689.242188 250.71875 5699.800781 256.058594 C 5710.414062 261.335938 5718.484375 268.832031 5724.011719 278.546875 C 5729.609375 288.195312 5732.410156 299.550781 5732.410156 312.613281 C 5732.410156 325.738281 5729.582031 337.027344 5723.917969 346.488281 C 5718.265625 355.882812 5710.058594 363.085938 5699.3125 368.105469 C 5688.632812 373.125 5675.710938 375.632812 5660.519531 375.632812 L 5608.320312 375.632812 L 5608.320312 342.046875 L 5653.765625 342.046875 C 5661.742188 342.046875 5668.375 340.953125 5673.644531 338.765625 C 5678.917969 336.578125 5682.84375 333.296875 5685.410156 328.921875 C 5688.0625 324.546875 5689.378906 319.113281 5689.378906 312.613281 C 5689.378906 306.050781 5688.0625 300.515625 5685.410156 296.015625 C 5682.84375 291.507812 5678.890625 288.101562 5673.550781 285.785156 C 5668.277344 283.402344 5661.621094 282.214844 5653.578125 282.214844 L 5625.398438 282.214844 L 5625.398438 445.699219 Z M 5690.34375 355.753906 L 5739.460938 445.699219 L 5693.332031 445.699219 L 5645.277344 355.753906 Z M 5803.730469 248.046875 L 5803.730469 445.699219 L 5761.949219 445.699219 L 5761.949219 248.046875 Z M 5803.730469 248.046875 "/>
</g>
</svg>
